<?xml version="1.0" encoding="UTF-8"?>
<!-- Generator: Adobe Illustrator 25.2.3, SVG Export Plug-In . SVG Version: 6.00 Build 0)  -->
<svg xmlns="http://www.w3.org/2000/svg" xmlns:xlink="http://www.w3.org/1999/xlink" version="1.1" id="Capa_1" x="0px" y="0px" viewBox="0 0 512 512" style="enable-background:new 0 0 512 512;" xml:space="preserve" width="512" height="512">
<g>
	<g>
		<g>
			<g>
				
					<ellipse transform="matrix(0.7071 -0.7071 0.7071 0.7071 -55.7694 141.8738)" style="fill:#FD8A02;" cx="143.372" cy="138.256" rx="135.89" ry="135.89"/>
				<path style="fill:#FFCF00;" d="M194.651,136.759c-0.981,0.018-26.07,0.34-46.859,0.994c24.23-6.278,43.255-11.736,61.667-16.909      c9.396-2.704,39.267-9.144,63.764-24.559l-0.307-0.936c-12.549,0.913-33.668,5.422-49.997,11.798      c-27.744,10.945-37.32,13.807-75.609,29.138c11.72-8.068,70.917-49.77,79.581-57.318c7.999-6.977,17.63-16.268,24.077-24.581      l-0.609-0.774c-26.713,11.995-48.91,33.666-55.768,39.483c-1.562,1.34-23.643,19.952-48.289,42.021      c25.435-35.732,27.667-40.383,46.175-66.668c10.382-14.854,19.549-34.305,23.24-45.813l-0.838-0.519      c-7.587,7.378-15.767,18.033-21.744,26.666c-8.287,11.985-44.383,78.566-48.113,85.539c3.454-12.518,22.074-82.336,24.08-95.143      c1.633-10.462,3.035-23.775,2.624-34.308l-0.964-0.202c-4.603,9.529-8.643,22.343-11.303,32.499      c-3.613,13.824-14.778,88.703-15.916,96.658c-0.969-12.919-6.968-84.753-9.402-97.507c-1.994-10.425-5.168-23.425-9.099-33.184      l-0.976,0.136c-1.333,12.526-0.647,34.109,2.722,51.298c6.17,30.914,6.77,38.291,15.231,79.581      c-5.353-11.852-35.605-77.35-42.257-88.5c-5.384-9.014-12.832-20.195-19.909-28.065l-0.87,0.462      c2.54,10.232,7.593,22.623,12.077,32.219c6.006,12.835,45.218,77.498,49.631,84.67c-30.591-31.329-34.951-34.538-57.397-57.291      c-12.38-12.464-29.976-25.172-40.952-31.014l-0.659,0.731c16.743,24.869,42.815,43.598,48.38,48.254      c2.133,1.766,22.842,19.227,49.618,40.437c-33.45-16.077-48.506-22.291-73.548-34.169c-16.21-7.619-36.95-13.414-49.093-15.123      l-0.37,0.913c27.498,20.001,59.23,26.887,78.04,34.557c1.055,0.366,24.458,8.627,44.327,15.225      c-14.205-1.404-86.278-7.741-97.779-7.567c-10.502,0.166-23.905,1.037-34.256,3.24l-0.035,0.984      c28.09,8.06,60.457,5.842,68.082,5.826c1.92-0.015,30.769,0.017,63.934-0.938c-40.751,10.442-49.241,13.545-78.223,21.13      c-17.486,4.638-37.048,13.577-47.317,20l0.306,0.937c29.85-2.091,58.65-15.15,65.963-17.83      c2.014-0.752,28.979-10.542,59.751-22.766c-33.794,23.13-44.092,31.285-66.266,46.63      c-14.863,10.358-30.178,25.458-37.612,34.988l0.607,0.777c9.666-4.309,21.021-11.492,29.607-17.533      c9.328-6.574,61.537-51.996,74.669-63.69c-12.453,17.394-26.656,38.028-26.94,38.435      c-21.939,31.923-26.638,37.188-36.285,57.798c-2.4,5.206-4.687,10.481-6.492,16.058l0.836,0.521      c8.804-8.513,22.174-25.408,30.802-41.111c13.43-24.645,19.345-33.731,39.357-70.906      c-10.028,35.963-13.439,51.608-20.762,78.396c-4.684,17.37-6.734,38.797-6.291,50.983l0.963,0.204      c12.786-26.279,16.181-58.543,17.481-66.057c0.241-1.48,5.265-29.903,10.103-63.138c3.33,42.858,4.679,48.757,7.322,80.696      c0.489,5.675,1.269,11.308,2.351,16.898c2.019,10.398,5.224,23.392,9.189,33.159l0.976-0.139      c1.262-12.18,0.639-33.685-2.861-51.29c-6.168-30.488-7.032-39.043-15.445-79.541c5.344,11.75,35.747,77.145,42.495,88.386      c5.454,9.074,12.914,20.191,19.984,28.01l0.869-0.464c-2.576-10.263-7.693-22.687-12.163-32.187      c-6.079-12.896-45.573-77.613-49.858-84.536c14.953,15.235,32.861,32.816,33.214,33.167      c21.875,20.182,26.193,28.563,50.674,45.709c4.714,3.262,9.516,6.425,14.698,9.164l0.658-0.733      c-16.395-24.209-42.669-43.264-48.51-48.123c-2.411-1.965-21.89-18.377-49.726-40.304c10.086,4.814,75.787,35.665,89.454,40.369      c5.385,1.85,10.839,3.53,16.372,5.012c5.545,1.452,11.14,2.779,16.946,3.579l0.367-0.914      c-8.527-6.166-20.387-12.377-30.017-16.819c-12.864-5.925-84.49-30.002-92.484-32.632c19.622,1.887,46.55,3.995,46.697,4.007      c22.427,0.791,52.669,7.01,85.35-0.036l0.032-0.984C246.881,132.93,218.066,137.445,194.651,136.759z"/>
			</g>
			<path style="fill:#000E3F;" d="M143.084,276.516c-29.866,0-58.785-9.642-83.032-27.959     C30.588,226.3,11.557,193.904,6.461,157.333c-5.096-36.569,4.353-72.934,26.611-102.396     C55.327,25.473,87.724,6.442,124.295,1.344C160.851-3.74,197.231,5.7,226.693,27.955c29.462,22.258,48.495,54.654,53.591,91.225     c5.096,36.571-4.356,72.937-26.611,102.398c-22.257,29.461-54.653,48.495-91.225,53.59     C155.976,276.069,149.507,276.516,143.084,276.516z M143.651,4.685c-6.21,0-12.455,0.43-18.71,1.302     C52.007,16.151,0.938,83.755,11.105,156.687c4.923,35.33,23.308,66.628,51.773,88.13c28.462,21.5,63.592,30.636,98.925,25.708     c35.331-4.923,66.628-23.308,88.13-51.772c21.502-28.462,30.631-63.597,25.708-98.927c-4.923-35.33-23.308-66.628-51.773-88.13     C200.446,14.002,172.5,4.685,143.651,4.685z"/>
		</g>
		<g>
			<g>
				<path style="fill:#FFCF00;" d="M246.505,123.898c7.937,56.962-31.804,109.571-88.766,117.508      c-26.341,3.67-51.76-2.861-72.241-16.574c-23.816-15.934-40.986-41.573-45.253-72.194      c-7.937-56.962,31.804-109.57,88.752-117.506c31.568-4.398,61.794,5.839,83.834,25.544      C230.554,76.52,242.964,98.49,246.505,123.898z"/>
				<path style="opacity:0.75;fill:#FFFFFF;" d="M57.456,116.124c4.335-32.576,34.928-59.78,66.591-60.463      c1.376-0.03,2.516,1.061,2.545,2.437c0.043,1.955-1.933,2.541-1.803,2.449c-29.952,8.984-50.353,27.776-62.845,56.785      l-0.012,0.028c-0.512,1.189-1.891,1.737-3.08,1.226C57.867,118.162,57.322,117.138,57.456,116.124z"/>
				<path style="opacity:0.5;fill:#FD8A02;" d="M246.505,123.898c7.937,56.962-31.804,109.571-88.766,117.508      c-26.341,3.67-51.76-2.861-72.241-16.574C221.37,214.239,226.439,123.767,212.831,60.676      C230.554,76.52,242.964,98.49,246.505,123.898z"/>
				<g>
					<path style="fill:#FC09B2;" d="M83.322,153.072c5.801-8.587,20.124-10.941,29.314-7.214c9.098,3.69,10.093,14.574-2.221,20.086       C93.548,173.494,75.798,164.211,83.322,153.072z"/>
					<path style="fill:#FC09B2;" d="M205.185,136.091c-7.928-6.675-22.348-5.023-30.169,1.074       c-7.743,6.036-5.725,16.778,7.627,18.714C200.932,158.531,215.468,144.75,205.185,136.091z"/>
				</g>
				<path style="fill:#FFFFFF;" d="M157.004,123.548c4.187,0.401,6.444,2.85,7.01,6.273c3.038,18.357-23.531,28.388-36.336,17.367      c-4.583-3.945-10.332-14.181-3.106-18.547C128.384,126.338,143.357,122.244,157.004,123.548z"/>
			</g>
			<g>
				<path style="fill:#000E3F;" d="M96.681,120.668c4.725-1.805,10.772-0.177,13.731,5.034c5.208,9.169-5.558,18.333-14.61,13.432      C88.52,135.192,88.602,123.753,96.681,120.668z"/>
				<path style="fill:#000E3F;" d="M183.444,108.579c-5.038-0.444-10.41,2.775-11.832,8.596      c-2.503,10.244,10.357,16.115,17.725,8.926C195.265,120.318,192.059,109.338,183.444,108.579z"/>
				<path style="fill:#000E3F;" d="M143.153,244.758c-23.005,0-45.281-7.428-63.955-21.535      c-22.695-17.141-37.352-42.094-41.278-70.264c-3.924-28.167,3.354-56.177,20.498-78.869      c17.141-22.695,42.094-37.352,70.264-41.278c28.167-3.919,56.182,3.356,78.869,20.498      c22.695,17.141,37.352,42.094,41.278,70.264l0,0c3.924,28.167-3.354,56.177-20.498,78.869      c-17.141,22.695-42.094,37.352-70.264,41.278C153.083,244.415,148.098,244.758,143.153,244.758z M143.587,36.46      c-4.732,0-9.492,0.331-14.26,0.994c-26.929,3.751-50.783,17.764-67.172,39.46c-16.386,21.693-23.346,48.469-19.593,75.398      c3.751,26.929,17.764,50.783,39.46,67.172c21.693,16.389,48.48,23.338,75.398,19.593c26.929-3.751,50.783-17.764,67.172-39.46      c16.386-21.693,23.346-48.469,19.593-75.398l0,0c-3.751-26.929-17.764-50.783-39.46-67.172      C186.872,43.563,165.575,36.46,143.587,36.46z"/>
			</g>
		</g>
	</g>
	<g>
		<g>
			<g>
				<path style="fill:#00D5FE;" d="M389.487,452.873c-19.761,47.099-74.144,69.336-121.265,49.565      c-0.862-0.361-1.723-0.723-2.542-1.12c-34.312-15.568-56.068-51.472-54.125-89.315c0.131-2.343,0.348-4.703,0.633-7.034      c0.884-6.743,2.524-13.381,4.872-19.803c11.832-32.202,40.259-55.125,74.2-59.88l97.882-233.3      c10.095-24.06,37.87-35.398,61.908-25.313c1.699,0.713,3.292,1.488,4.779,2.324c21.071,11.692,29.786,37.595,20.3,60.204      l-97.626,232.688C397.863,388.075,402.081,422.855,389.487,452.873z"/>
				<path style="fill:#FC09B2;" d="M377.638,447.901c-8.241,19.642-23.654,34.916-43.391,42.967      c-19.715,8.06-41.413,7.962-61.055-0.279c-0.726-0.304-1.45-0.608-2.157-0.958c-30.508-13.838-48.367-45.124-46.608-77.13      c0.139-2.366,0.357-4.725,0.716-7.105c0.76-5.303,2.071-10.588,3.983-15.78c10.217-27.845,34.79-47.615,64.164-51.649      c4.377-0.589,7.944-3.248,9.56-7.099L400.99,96.957c7.347-17.513,27.576-25.784,45.088-18.436      c1.2,0.504,2.373,1.075,3.516,1.715c15.289,8.519,21.611,27.424,14.663,43.985l-97.787,233.073      c-1.654,3.942-1.169,8.435,1.283,11.674C384.772,391.588,388.578,421.826,377.638,447.901z"/>
				<path style="fill:#FFFFFF;" d="M464.255,124.22l-17.223,41.051l-63.501-26.642l17.48-41.663      c7.347-17.512,27.553-25.793,45.065-18.446c1.201,0.504,2.373,1.076,3.526,1.693C464.913,88.742,471.203,107.66,464.255,124.22z      "/>
				<path style="opacity:0.25;fill:#322BBF;" d="M389.487,452.873c-19.761,47.099-74.144,69.336-121.265,49.565      c-0.862-0.361-1.723-0.723-2.542-1.12c-34.312-15.568-56.068-51.472-54.125-89.315c0.131-2.343,0.348-4.703,0.633-7.034      c0.293-0.063,0.587-0.127,0.861-0.145c4.281-0.362,8.307-0.112,12.095,0.572c-0.36,2.38-0.577,4.74-0.716,7.105      c-1.759,32.006,16.1,63.292,46.608,77.13c0.707,0.35,1.431,0.654,2.157,0.958c19.642,8.241,41.34,8.339,61.055,0.279      c19.737-8.051,35.15-23.325,43.391-42.967c10.94-26.076,7.134-56.314-9.885-78.934c-2.451-3.239-2.936-7.732-1.283-11.674      l59.416-141.616c1.153-0.529,2.312-1.002,3.496-1.411c3.937-1.385,8.071-2.155,12.253-2.852l-63.132,150.474      C397.863,388.075,402.081,422.855,389.487,452.873z"/>
				<path style="opacity:0.25;fill:#000E3F;" d="M334.247,490.868c-19.715,8.06-41.413,7.962-61.055-0.279      c-0.726-0.304-1.45-0.608-2.157-0.958c-30.508-13.838-48.367-45.124-46.608-77.13c0.139-2.366,0.357-4.725,0.716-7.105      c30.38,5.633,46.802,41.296,79.119,42.44c30.999,1.098,51.294-23.715,45.925-52.947c-5.134-27.953-1.003-53.74,8.292-80.593      c10.754-31.03,22.02-63.789,47.959-85.544c5.757-4.832,12.413-9.898,19.447-13.075l-59.416,141.616      c-1.654,3.942-1.169,8.435,1.283,11.674C398.842,410.289,383.237,470.884,334.247,490.868z"/>
				<g>
					<path style="fill:#FF8EDE;" d="M241.376,393.6c10.187-4.808,24.88,0.938,31.402,9.521c6.456,8.496,1.348,19.222-13.22,17.542       C239.603,418.362,228.163,399.837,241.376,393.6z"/>
					<path style="fill:#FF8EDE;" d="M364.7,445.341c-3.707-10.637-18.102-17.095-28.795-15.735       c-10.586,1.346-14.66,12.506-3.254,21.723C348.275,463.956,369.508,459.14,364.7,445.341z"/>
				</g>
			</g>
			<g>
				<g>
					<path style="fill:#000E3F;" d="M443.299,148.837l-39.969-16.768c-1.193-0.504-2.568,0.064-3.069,1.253       c-0.501,1.195,0.061,2.568,1.254,3.07l39.969,16.767c0.298,0.125,0.605,0.183,0.908,0.183c0.915,0,1.785-0.542,2.161-1.437       C445.053,150.711,444.491,149.338,443.299,148.837z"/>
					<path style="fill:#000E3F;" d="M435.578,168.73l-25.81-10.83c-1.193-0.501-2.568,0.064-3.069,1.254       c-0.501,1.195,0.061,2.568,1.254,3.069l25.81,10.83c0.297,0.125,0.605,0.183,0.908,0.183c0.915,0,1.785-0.542,2.161-1.437       C437.333,170.604,436.771,169.231,435.578,168.73z"/>
					<path style="fill:#000E3F;" d="M426.795,188.172l-39.969-16.768c-1.2-0.503-2.566,0.064-3.069,1.254       c-0.501,1.195,0.061,2.568,1.254,3.069l39.969,16.768c0.298,0.124,0.605,0.183,0.908,0.183c0.915,0,1.785-0.542,2.161-1.437       C428.55,190.046,427.988,188.673,426.795,188.172z"/>
					<path style="fill:#000E3F;" d="M419.075,208.065l-25.81-10.83c-1.2-0.501-2.571,0.064-3.069,1.254       c-0.501,1.195,0.061,2.568,1.254,3.069l25.81,10.83c0.297,0.125,0.605,0.183,0.908,0.183c0.915,0,1.785-0.542,2.161-1.437       C420.83,209.939,420.268,208.566,419.075,208.065z"/>
					<path style="fill:#000E3F;" d="M410.29,227.508l-39.966-16.767c-1.198-0.504-2.568,0.063-3.069,1.253       c-0.501,1.195,0.061,2.569,1.254,3.069l39.966,16.768c0.297,0.125,0.605,0.183,0.908,0.183c0.915,0,1.785-0.542,2.161-1.437       C412.044,229.382,411.482,228.009,410.29,227.508z"/>
					<path style="fill:#000E3F;" d="M402.572,247.401l-25.81-10.83c-1.198-0.501-2.568,0.064-3.069,1.254       c-0.501,1.195,0.061,2.568,1.254,3.069l25.81,10.83c0.297,0.125,0.605,0.183,0.908,0.183c0.915,0,1.785-0.542,2.161-1.437       C404.327,249.275,403.765,247.902,402.572,247.401z"/>
					<path style="fill:#000E3F;" d="M393.786,266.843l-39.966-16.768c-1.193-0.496-2.568,0.064-3.069,1.254       c-0.501,1.195,0.061,2.568,1.254,3.069l39.966,16.767c0.297,0.125,0.605,0.183,0.908,0.183c0.915,0,1.785-0.542,2.161-1.437       C395.541,268.717,394.979,267.344,393.786,266.843z"/>
					<path style="fill:#000E3F;" d="M386.069,286.736l-25.81-10.83c-1.193-0.501-2.568,0.064-3.069,1.254       c-0.501,1.195,0.061,2.568,1.254,3.069l25.81,10.83c0.298,0.125,0.605,0.183,0.908,0.183c0.915,0,1.785-0.542,2.161-1.437       C387.824,288.61,387.262,287.237,386.069,286.736z"/>
					<path style="fill:#000E3F;" d="M377.283,306.179l-39.969-16.767c-1.197-0.496-2.568,0.063-3.069,1.253       c-0.501,1.195,0.061,2.569,1.254,3.069l39.969,16.768c0.297,0.124,0.605,0.183,0.908,0.183c0.915,0,1.785-0.542,2.161-1.437       C379.038,308.053,378.476,306.68,377.283,306.179z"/>
					<path style="fill:#000E3F;" d="M369.563,326.071l-25.807-10.827c-1.2-0.504-2.566,0.061-3.069,1.253       c-0.501,1.195,0.061,2.568,1.254,3.069l25.807,10.827c0.298,0.125,0.605,0.183,0.908,0.183c0.915,0,1.785-0.542,2.161-1.437       C371.318,327.945,370.756,326.572,369.563,326.071z"/>
					<path style="fill:#000E3F;" d="M318.996,333.069l39.969,16.77c0.297,0.125,0.605,0.183,0.908,0.183       c0.915,0,1.785-0.542,2.161-1.437c0.501-1.195-0.061-2.568-1.254-3.069l-39.969-16.77c-1.195-0.496-2.568,0.063-3.069,1.254       C317.241,331.195,317.804,332.568,318.996,333.069z"/>
				</g>
				<path style="fill:#000E3F;" d="M456.989,66.952c-1.554-0.875-3.242-1.696-5.022-2.444      c-25.251-10.596-54.394,1.327-64.985,26.568l-97.368,232.076c-34.209,5.271-62.775,28.622-74.755,61.212      c-3.257,8.874-5.154,18.131-5.635,27.511c-2.014,38.804,20.282,75.609,55.45,91.573c0.862,0.404,1.757,0.781,2.647,1.155      c11.969,5.02,24.396,7.397,36.63,7.397c37.131,0,72.466-21.902,87.706-58.221c12.712-30.301,8.676-65.501-10.49-92.206      l97.109-231.456C488.231,106.386,479.074,79.231,456.989,66.952z M473.953,128.301l-97.62,232.677      c-0.32,0.763-0.214,1.637,0.277,2.301c18.863,25.507,22.972,59.49,10.723,88.685c-19.26,45.904-72.271,67.582-118.199,48.317      c-0.832-0.348-1.66-0.694-2.492-1.086c-33.459-15.189-54.651-50.181-52.739-87.078c0.46-8.91,2.261-17.706,5.355-26.135      c11.537-31.384,39.252-53.754,72.331-58.381c0.819-0.115,1.516-0.654,1.836-1.414l97.88-233.294      c7.214-17.195,23.938-27.562,41.515-27.562c5.787,0,11.669,1.124,17.332,3.502c1.615,0.676,3.143,1.419,4.549,2.21      C474.705,82.163,482.982,106.781,473.953,128.301z"/>
				<path style="fill:#000E3F;" d="M328.125,405.67c-1.19-0.488-2.566,0.079-3.056,1.282c-3.224,7.878-11.547,14.764-20.607,11.969      c-4.697-1.442-7.061-4.801-8.218-7.367c-2.184-4.847-2.075-11.334,0.28-16.531c0.537-1.177,0.013-2.566-1.167-3.1      c-1.172-0.539-2.568-0.013-3.1,1.167c-2.932,6.464-3.041,14.278-0.285,20.391c2.227,4.941,6.07,8.371,11.112,9.92      c1.884,0.577,3.736,0.844,5.539,0.844c9.414,0,17.416-7.293,20.785-15.519C329.897,407.529,329.323,406.161,328.125,405.67z"/>
				<path style="fill:#000E3F;" d="M368.62,413.187l-7.701-1.084c-0.001-0.238-0.012-0.475-0.029-0.713l6.817-3.024      c1.182-0.524,1.717-1.907,1.19-3.092c-0.524-1.182-1.9-1.724-3.092-1.19l-6.393,2.837c-0.629-0.98-1.438-1.886-2.494-2.646      c-4.138-2.977-10.45-2.951-14.678,1.363c-7.44,7.59,0.686,19.296,10.77,16.856c3.243-0.784,5.628-3.048,6.895-5.797l8.064,1.135      c0.109,0.015,0.219,0.023,0.328,0.023c1.149,0,2.154-0.847,2.319-2.019C370.797,414.552,369.902,413.368,368.62,413.187z"/>
				<path style="fill:#000E3F;" d="M276.131,370.38c-1.282-0.221-2.495-0.164-3.635,0.074l-2.456-6.55      c-0.455-1.213-1.8-1.823-3.018-1.371c-1.21,0.455-1.826,1.806-1.371,3.018l2.617,6.98c-0.182,0.154-0.358,0.312-0.528,0.479      l-6.17-4.736c-1.025-0.791-2.5-0.598-3.286,0.432c-0.788,1.027-0.595,2.497,0.432,3.285l6.458,4.957      c-1.074,2.831-1.018,6.119,0.694,8.983c5.324,8.905,19.37,6.501,19.573-4.125C285.558,375.769,281.155,371.247,276.131,370.38z"/>
			</g>
		</g>
		<g>
			<g>
				<path style="fill:#00D5FE;" d="M431.465,371.553c-0.362,0.395-0.696,0.777-1.024,1.174c-0.328,0.396-0.108,0.97,0.382,1.055      c26.414,4.482,34.367,20.054,39.89,25.648l1.297,1.305c6.833,6.927,17.998,6.993,24.924,0.16      c5.514-5.438,6.415-12.091,4.054-18.461c-4.234-11.445-19.057-21.919-36.824-22.658      C450.149,359.142,438.175,364.38,431.465,371.553z"/>
				<g style="opacity:0.25;">
					<path style="fill:#322BBF;" d="M431.465,371.553c-0.362,0.395-0.696,0.777-1.024,1.174c-0.328,0.396-0.108,0.97,0.382,1.055       c26.414,4.482,34.367,20.054,39.89,25.648l1.297,1.305c6.833,6.927,17.998,6.993,24.924,0.16       c5.514-5.438,6.415-12.091,4.054-18.461c-5.681,2.325-12.648,2.233-18.714,0.536c-9.13-2.558-17.197-7.95-26.069-11.293       C448.259,368.681,438.776,367.603,431.465,371.553z"/>
				</g>
				<path style="opacity:0.75;fill:#FFFFFF;" d="M456.566,365.813c-0.718,0.235-1.111,1.006-0.876,1.725      c0.3,0.918,1.417,1.027,1.22,0.947c21.522,3.12,26.787,11.049,28.207,7.897C486.358,373.617,470.505,361.262,456.566,365.813z"/>
			</g>
			<path style="fill:#000E3F;" d="M461.869,359.724c0.758,0,1.524,0.017,2.295,0.052c17.768,0.738,32.59,11.212,36.824,22.658     c2.361,6.369,1.46,13.023-4.053,18.461c-3.436,3.389-7.912,5.081-12.386,5.081c-4.548,0-9.094-1.748-12.539-5.24l-1.297-1.305     c-5.523-5.594-13.475-21.166-39.89-25.648c-0.49-0.085-0.709-0.659-0.381-1.055c0.327-0.396,0.661-0.779,1.023-1.174     C437.806,364.774,448.846,359.724,461.869,359.724 M461.869,355.037c-13.383,0-26.029,4.978-33.826,13.314     c-0.452,0.493-0.838,0.936-1.217,1.394c-1.208,1.459-1.554,3.474-0.896,5.252c0.658,1.777,2.226,3.081,4.097,3.404     c20.161,3.421,28.438,13.6,33.915,20.336c1.251,1.538,2.331,2.867,3.437,3.986l1.308,1.316c4.209,4.266,9.846,6.623,15.862,6.623     c5.906,0,11.475-2.284,15.678-6.431c6.441-6.353,8.32-14.892,5.157-23.427c-5.227-14.126-22.48-24.941-41.025-25.711     C463.534,355.056,462.697,355.037,461.869,355.037L461.869,355.037z"/>
		</g>
		<g>
			<g>
				<path style="fill:#00D5FE;" d="M427.027,404.618c-1.925-0.186,1.822,5.557,3.081,12.65l0.495,2.67      c1.554,8.677-1.569,15-2.675,19.885c-0.006,0.107-0.01,0.184,0.005,0.185l0.013,0.047l0.014,0.016l0.052-0.104l0.104-0.209      c-3.208,7.839,0.542,16.793,8.381,20.002c0.105,0.037,0.21,0.088,0.331,0.126c4.06,1.566,8.409,1.274,12.073-0.471      c0.774-0.371,1.504-0.79,2.208-1.289c2.335-1.62,4.247-3.924,5.405-6.747l0.425-0.99c7.262-19.211-5.837-43.013-29.378-45.71      C427.394,404.655,427.21,404.644,427.027,404.618z"/>
				<g style="opacity:0.25;">
					<path style="fill:#322BBF;" d="M427.027,404.618c-1.925-0.186,1.822,5.557,3.081,12.65l0.495,2.67       c1.554,8.677-1.569,15-2.675,19.885c-0.006,0.107-0.01,0.184,0.005,0.185l0.013,0.047l0.014,0.016l0.052-0.104l0.104-0.209       c-3.208,7.839,0.542,16.793,8.381,20.002c0.105,0.037,0.21,0.088,0.331,0.126c4.06,1.566,8.409,1.274,12.073-0.471       c0.774-0.371,1.504-0.79,2.208-1.289c-2.439-1.705-4.655-3.274-5.439-4.087c-13.01-13.411,1.141-30.281-10.261-42.218       c-1.712-1.787-4.441-4.891-7.848-7.142C427.394,404.655,427.21,404.644,427.027,404.618z"/>
				</g>
				<path style="opacity:0.75;fill:#FFFFFF;" d="M450.958,446.55c7.159-12.961-2.719-28.391-5.517-24.999      c-0.577,0.699-0.169,1.626-0.188,1.471c5.745,16.171,1.172,24.274,4.597,24.198C450.329,447.209,450.741,446.94,450.958,446.55z      "/>
			</g>
			<path style="fill:#000E3F;" d="M426.94,404.614c0.027,0,0.056,0.001,0.087,0.005c0.183,0.026,0.367,0.036,0.534,0.061     c23.54,2.697,36.64,26.498,29.379,45.71l-0.425,0.991c-1.158,2.823-3.07,5.127-5.406,6.747c-0.704,0.498-1.434,0.917-2.209,1.288     c-2.042,0.972-4.295,1.493-6.595,1.493c-1.826,0-3.68-0.329-5.477-1.022c-0.121-0.038-0.225-0.09-0.331-0.126     c-7.84-3.208-11.59-12.163-8.381-20.001l-0.104,0.209l-0.052,0.104l-0.015-0.016l-0.013-0.046     c-0.015-0.001-0.01-0.078-0.004-0.185c1.105-4.884,4.228-11.208,2.674-19.885l-0.495-2.67     C428.869,410.288,425.219,404.614,426.94,404.614 M426.94,399.927c-1.691,0-3.264,0.812-4.21,2.173     c-1.717,2.475-0.764,5.031,0.442,8.267c0.807,2.161,1.811,4.851,2.319,7.721l0.501,2.705c0.998,5.573-0.364,10.111-1.565,14.115     c-0.403,1.343-0.785,2.612-1.072,3.882c-0.044,0.199-0.076,0.4-0.095,0.603c-1.486,4.56-1.292,9.447,0.58,13.915     c2.067,4.933,5.931,8.765,10.882,10.791c0.075,0.031,0.151,0.06,0.229,0.087c0.055,0.025,0.159,0.067,0.284,0.111     c2.271,0.863,4.65,1.301,7.07,1.301c2.956,0,5.934-0.674,8.61-1.948c1.061-0.509,2.005-1.061,2.9-1.695     c3.121-2.164,5.566-5.214,7.035-8.793l0.397-0.923c0.027-0.062,0.052-0.126,0.076-0.189c4-10.582,2.689-22.963-3.505-33.12     c-6.448-10.573-17.26-17.458-29.666-18.897c-0.127-0.017-0.258-0.032-0.393-0.045c-0.069-0.009-0.21-0.025-0.28-0.031     C427.291,399.935,427.111,399.927,426.94,399.927L426.94,399.927z"/>
		</g>
	</g>
	<g>
		<path style="fill:#FF8EDE;" d="M95.909,339.66c-4.458-3.371-8.408-6.084-10.392-9.284c-1.968-3.175,1.575-6.882,4.596-5.264    c4.943,2.645,11.007,9.463,12.259,8.736c1.234-0.716,0.35-2.417,0.16-3.673c-1.059-6.986-2.28-11.156-2.146-15.855    c0.101-3.567,5.828-4.016,7.018-1.139c1.147,2.777,1.319,6.078,3.997,20.975c0.888,4.937,4.243,0.547,9.056-3.898    c2.732-2.523,7.231-4.697,9.291-1.621c1.699,2.538-0.446,4.606-2.642,6.755c-11.564,11.315-12.269,8.781,7.327,10.887    c3.599,0.387,7.992,1.175,7.357,4.852c-0.648,3.751-4.905,2.928-13.318,2.438c-1.106-0.064-2.204-0.491-3.3-0.469    c-2.423,0.049-4.837-0.813-7.261-0.069c0.075,2.984,2.889,4.117,4.27,6.224c2.213,3.376,5.547,4.577,5.385,8.865    c-0.063,1.67-1.543,2.961-3.142,2.595c-7.807-1.787-11.473-13.642-13.477-6.391c-2.588,9.372-2.842,11.635-4.701,15.288    c-1.755,3.447-6.422,2.148-6.321-1.686c0.168-6.358,4.552-17.801,3.169-18.763c-1.442-1.003-10.804,10.617-15.046,11.466    c-3.066,0.614-4.892-1.834-3.816-4.353c1.636-3.829,3.463-4.818,11.138-12.3c0.596-0.582,1.502-1.21,0.961-2.189    c-0.484-0.875-1.533-0.775-2.396-0.759c-4.368,0.079-14.209,0.4-14.672,0.348c-4.365-0.492-4.893-7.3-0.054-7.591    c16.815-1.011,21.549,0.4,16.62-4.018C95.853,339.732,95.881,339.696,95.909,339.66z"/>
		<path style="fill:#FF8EDE;" d="M29.793,414.594c-4.914-3.939-11.714-8.662-8.424-12.17c2.292-2.445,4.611-0.35,7.477,2.024    c1.642,1.36,5.87,5.697,6.745,5.222c1.196-0.65,0.301-1.185-1.081-12.476c-0.404-3.305-0.744-7.121,2.581-7.189    c4.538-0.092,3.607,1.691,6.391,20.159c0.654,4.341,3.698,0.583,8.02-3.186c2.453-2.14,6.443-3.929,8.168-1.187    c1.427,2.268-0.516,4.029-2.479,5.844c-10.396,9.612-10.953,7.377,6.14,9.706c3.14,0.428,6.963,1.226,6.316,4.428    c-1.117,5.529-16.367-0.193-20.938,1.07c-0.009,2.612,2.425,3.674,3.581,5.551c1.853,3.009,4.739,4.134,4.491,7.889    c-0.258,3.912-4.982,2.069-7.732-0.821c-7.089-7.446-5.101-7.369-9.581,6.603c-0.898,2.796-2.27,6.169-5.045,5.283    c-2.989-0.955-2.114-4.432-1.291-7.766c3.656-14.795,5.62-15.156-7.44-4.023c-5.766,4.916-10.686-0.025-3.242-6.565    c11.059-9.717,10.341-8.5-4.604-8.529c-1.405-0.003-6.071,0.706-5.828-3.78c0.089-1.652,1.169-2.83,3.06-2.89    c14.721-0.467,18.844,0.895,14.639-3.103C29.743,414.656,29.768,414.625,29.793,414.594z"/>
		<path style="fill:#FF8EDE;" d="M140.404,469.84c-5.196,0.368-9.632,0.887-12.988-0.142c-3.329-1.021-3.116-5.795-0.003-6.513    c5.089-1.175,13.53-0.111,13.963-1.388c0.427-1.259-1.237-1.912-2.141-2.676c-5.027-4.253-8.443-6.432-11.23-9.812    c-2.117-2.565,1.628-6.393,4.227-5.103c2.506,1.243,4.629,3.438,15.67,12.27c3.651,2.921,3.313-2.219,3.965-8.291    c0.37-3.447,2.194-7.732,5.526-6.836c2.756,0.741,2.51,3.523,2.289,6.362c-1.176,15.033-3.226,13.688,11.82,3.147    c2.764-1.935,6.331-4.077,8.14-1.106c1.895,3.111-1.919,5.274-7.852,9.879c-0.816,0.633-1.848,1.007-2.603,1.695    c-1.67,1.521-3.894,2.396-5.139,4.405c1.883,2.048,4.553,1.118,6.815,1.75c3.624,1.012,6.7-0.189,9.217,2.919    c0.98,1.21,0.733,3.025-0.614,3.749c-6.57,3.531-16.421-2.539-13.379,3.781c4.68,9.719,8.485,15.436,4.517,17.29    c-3.027,1.415-4.859-1.937-6.626-5.137c-7.861-14.244-6.558-16-8.726,2.236c-0.924,7.771-8.394,7.917-7.283-2.788    c1.619-15.611,1.923-14.11-9.768-3.337c-0.76,0.701-1.452,1.499-2.294,2.082c-3.362,2.331-7.914-2.119-4.693-5.294    c11.136-10.98,15.409-12.927,9.199-13.013C140.41,469.925,140.407,469.883,140.404,469.84z"/>
	</g>
</g>















</svg>
